<svg id="visual" viewBox="0 0 960 540" width="960" height="540" xmlns="http://www.w3.org/2000/svg" xmlns:xlink="http://www.w3.org/1999/xlink" version="1.1"><path d="M0 346L22.8 343.8C45.7 341.7 91.3 337.3 137 345.7C182.7 354 228.3 375 274 377.3C319.7 379.7 365.3 363.3 411.2 359.8C457 356.3 503 365.7 548.8 372.5C594.7 379.3 640.3 383.7 686 384.2C731.7 384.7 777.3 381.3 823 375.7C868.7 370 914.3 362 937.2 358L960 354L960 541L937.2 541C914.3 541 868.7 541 823 541C777.3 541 731.7 541 686 541C640.3 541 594.7 541 548.8 541C503 541 457 541 411.2 541C365.3 541 319.7 541 274 541C228.3 541 182.7 541 137 541C91.3 541 45.7 541 22.8 541L0 541Z" fill="#c62368"></path><path d="M0 356L22.8 365C45.7 374 91.3 392 137 404.2C182.7 416.3 228.3 422.7 274 423.7C319.7 424.7 365.3 420.3 411.2 412.8C457 405.3 503 394.7 548.8 393.8C594.7 393 640.3 402 686 404.8C731.7 407.7 777.3 404.3 823 400.3C868.7 396.3 914.3 391.7 937.2 389.3L960 387L960 541L937.2 541C914.3 541 868.7 541 823 541C777.3 541 731.7 541 686 541C640.3 541 594.7 541 548.8 541C503 541 457 541 411.2 541C365.3 541 319.7 541 274 541C228.3 541 182.7 541 137 541C91.3 541 45.7 541 22.8 541L0 541Z" fill="#ce1859"></path><path d="M0 436L22.8 433.2C45.7 430.3 91.3 424.7 137 419.5C182.7 414.3 228.3 409.7 274 411.2C319.7 412.7 365.3 420.3 411.2 423.2C457 426 503 424 548.8 424.2C594.7 424.3 640.3 426.7 686 422.7C731.7 418.7 777.3 408.3 823 402.3C868.7 396.3 914.3 394.7 937.2 393.8L960 393L960 541L937.2 541C914.3 541 868.7 541 823 541C777.3 541 731.7 541 686 541C640.3 541 594.7 541 548.8 541C503 541 457 541 411.2 541C365.3 541 319.7 541 274 541C228.3 541 182.7 541 137 541C91.3 541 45.7 541 22.8 541L0 541Z" fill="#d41248"></path><path d="M0 437L22.8 444.7C45.7 452.3 91.3 467.7 137 470.8C182.7 474 228.3 465 274 461.3C319.7 457.7 365.3 459.3 411.2 462.7C457 466 503 471 548.8 467.5C594.7 464 640.3 452 686 448.2C731.7 444.3 777.3 448.7 823 448.5C868.7 448.3 914.3 443.7 937.2 441.3L960 439L960 541L937.2 541C914.3 541 868.7 541 823 541C777.3 541 731.7 541 686 541C640.3 541 594.7 541 548.8 541C503 541 457 541 411.2 541C365.3 541 319.7 541 274 541C228.3 541 182.7 541 137 541C91.3 541 45.7 541 22.8 541L0 541Z" fill="#d71535"></path><path d="M0 490L22.8 489C45.7 488 91.3 486 137 484.5C182.7 483 228.3 482 274 483.2C319.7 484.3 365.3 487.7 411.2 488.8C457 490 503 489 548.8 489.5C594.7 490 640.3 492 686 495.7C731.7 499.3 777.3 504.7 823 504.7C868.7 504.7 914.3 499.3 937.2 496.7L960 494L960 541L937.2 541C914.3 541 868.7 541 823 541C777.3 541 731.7 541 686 541C640.3 541 594.7 541 548.8 541C503 541 457 541 411.2 541C365.3 541 319.7 541 274 541C228.3 541 182.7 541 137 541C91.3 541 45.7 541 22.8 541L0 541Z" fill="#d7211f"></path></svg>