<svg id="visual" viewBox="0 0 960 150" width="960" height="150" xmlns="http://www.w3.org/2000/svg" xmlns:xlink="http://www.w3.org/1999/xlink" version="1.1"><rect x="0" y="0" width="960" height="150" fill="#FFFF7E"></rect><path d="M0 59L22.8 53.2C45.7 47.3 91.3 35.7 137 31.2C182.7 26.7 228.3 29.3 274 36.8C319.7 44.3 365.3 56.7 411.2 55.3C457 54 503 39 548.8 33C594.7 27 640.3 30 686 31.7C731.7 33.3 777.3 33.7 823 34.3C868.7 35 914.3 36 937.2 36.5L960 37L960 151L937.2 151C914.3 151 868.7 151 823 151C777.3 151 731.7 151 686 151C640.3 151 594.7 151 548.8 151C503 151 457 151 411.2 151C365.3 151 319.7 151 274 151C228.3 151 182.7 151 137 151C91.3 151 45.7 151 22.8 151L0 151Z" fill="#c62368"></path><path d="M0 76L22.8 73.5C45.7 71 91.3 66 137 65.7C182.7 65.3 228.3 69.7 274 70.5C319.7 71.3 365.3 68.7 411.2 67C457 65.3 503 64.7 548.8 70.2C594.7 75.7 640.3 87.3 686 92.7C731.7 98 777.3 97 823 90.5C868.7 84 914.3 72 937.2 66L960 60L960 151L937.2 151C914.3 151 868.7 151 823 151C777.3 151 731.7 151 686 151C640.3 151 594.7 151 548.8 151C503 151 457 151 411.2 151C365.3 151 319.7 151 274 151C228.3 151 182.7 151 137 151C91.3 151 45.7 151 22.8 151L0 151Z" fill="#d41248"></path><path d="M0 97L22.8 98.8C45.7 100.7 91.3 104.3 137 108.5C182.7 112.7 228.3 117.3 274 117C319.7 116.7 365.3 111.3 411.2 111.3C457 111.3 503 116.7 548.8 120.7C594.7 124.7 640.3 127.3 686 127.2C731.7 127 777.3 124 823 118.3C868.7 112.7 914.3 104.3 937.2 100.2L960 96L960 151L937.2 151C914.3 151 868.7 151 823 151C777.3 151 731.7 151 686 151C640.3 151 594.7 151 548.8 151C503 151 457 151 411.2 151C365.3 151 319.7 151 274 151C228.3 151 182.7 151 137 151C91.3 151 45.7 151 22.8 151L0 151Z" fill="#d7211f"></path></svg>