<svg id="visual" viewBox="0 0 960 150" width="960" height="150" xmlns="http://www.w3.org/2000/svg" xmlns:xlink="http://www.w3.org/1999/xlink" version="1.1"><rect x="0" y="0" width="960" height="150" fill="#FFFF7E"></rect><path d="M0 33L22.8 34.2C45.7 35.3 91.3 37.7 137 40.5C182.7 43.3 228.3 46.7 274 44.2C319.7 41.7 365.3 33.3 411.2 34C457 34.7 503 44.3 548.8 44.2C594.7 44 640.3 34 686 33.3C731.7 32.7 777.3 41.3 823 42.3C868.7 43.3 914.3 36.7 937.2 33.3L960 30L960 151L937.2 151C914.3 151 868.7 151 823 151C777.3 151 731.7 151 686 151C640.3 151 594.7 151 548.8 151C503 151 457 151 411.2 151C365.3 151 319.7 151 274 151C228.3 151 182.7 151 137 151C91.3 151 45.7 151 22.8 151L0 151Z" fill="#c62368"></path><path d="M0 87L22.8 86.2C45.7 85.3 91.3 83.7 137 83.8C182.7 84 228.3 86 274 87C319.7 88 365.3 88 411.2 85.2C457 82.3 503 76.7 548.8 76.3C594.7 76 640.3 81 686 82.8C731.7 84.7 777.3 83.3 823 85.5C868.7 87.7 914.3 93.3 937.2 96.2L960 99L960 151L937.2 151C914.3 151 868.7 151 823 151C777.3 151 731.7 151 686 151C640.3 151 594.7 151 548.8 151C503 151 457 151 411.2 151C365.3 151 319.7 151 274 151C228.3 151 182.7 151 137 151C91.3 151 45.7 151 22.8 151L0 151Z" fill="#d41248"></path><path d="M0 97L22.8 100.2C45.7 103.3 91.3 109.7 137 110.2C182.7 110.7 228.3 105.3 274 103.2C319.7 101 365.3 102 411.2 104.3C457 106.7 503 110.3 548.8 111.5C594.7 112.7 640.3 111.3 686 110.2C731.7 109 777.3 108 823 107.3C868.7 106.7 914.3 106.3 937.2 106.2L960 106L960 151L937.2 151C914.3 151 868.7 151 823 151C777.3 151 731.7 151 686 151C640.3 151 594.7 151 548.8 151C503 151 457 151 411.2 151C365.3 151 319.7 151 274 151C228.3 151 182.7 151 137 151C91.3 151 45.7 151 22.8 151L0 151Z" fill="#d7211f"></path></svg>