<svg id="visual" viewBox="0 0 960 150" width="960" height="150" xmlns="http://www.w3.org/2000/svg" xmlns:xlink="http://www.w3.org/1999/xlink" version="1.1"><rect x="0" y="0" width="960" height="150" fill="#FFFF7E"></rect><path d="M0 98L22.8 98.8C45.7 99.7 91.3 101.3 137 100.3C182.7 99.3 228.3 95.7 274 96.3C319.7 97 365.3 102 411.2 100.8C457 99.7 503 92.3 548.8 94.7C594.7 97 640.3 109 686 112.8C731.7 116.7 777.3 112.3 823 106.2C868.7 100 914.3 92 937.2 88L960 84L960 0L937.2 0C914.3 0 868.7 0 823 0C777.3 0 731.7 0 686 0C640.3 0 594.7 0 548.8 0C503 0 457 0 411.2 0C365.3 0 319.7 0 274 0C228.3 0 182.7 0 137 0C91.3 0 45.7 0 22.8 0L0 0Z" fill="#c62368"></path><path d="M0 51L22.8 53.5C45.7 56 91.3 61 137 64.5C182.7 68 228.3 70 274 67.8C319.7 65.7 365.3 59.3 411.2 60.7C457 62 503 71 548.8 74.8C594.7 78.7 640.3 77.3 686 72.2C731.7 67 777.3 58 823 59.3C868.7 60.7 914.3 72.3 937.2 78.2L960 84L960 0L937.2 0C914.3 0 868.7 0 823 0C777.3 0 731.7 0 686 0C640.3 0 594.7 0 548.8 0C503 0 457 0 411.2 0C365.3 0 319.7 0 274 0C228.3 0 182.7 0 137 0C91.3 0 45.7 0 22.8 0L0 0Z" fill="#d41248"></path><path d="M0 35L22.8 32.7C45.7 30.3 91.3 25.7 137 27.8C182.7 30 228.3 39 274 42.8C319.7 46.7 365.3 45.3 411.2 43.7C457 42 503 40 548.8 37.8C594.7 35.7 640.3 33.3 686 35.8C731.7 38.3 777.3 45.7 823 47.8C868.7 50 914.3 47 937.2 45.5L960 44L960 0L937.2 0C914.3 0 868.7 0 823 0C777.3 0 731.7 0 686 0C640.3 0 594.7 0 548.8 0C503 0 457 0 411.2 0C365.3 0 319.7 0 274 0C228.3 0 182.7 0 137 0C91.3 0 45.7 0 22.8 0L0 0Z" fill="#d7211f"></path></svg>